<mxfile host="app.diagrams.net" agent="Mozilla/5.0 (Macintosh; Intel Mac OS X 10_15_7) AppleWebKit/537.36 (KHTML, like Gecko) Chrome/132.0.0.0 Safari/537.36" version="26.0.14">
  <diagram name="Page-1" id="EEgexHGbZ7TFaEmRHxWe">
    <mxGraphModel dx="1026" dy="684" grid="1" gridSize="10" guides="1" tooltips="1" connect="1" arrows="1" fold="1" page="1" pageScale="1" pageWidth="827" pageHeight="1169" math="0" shadow="0">
      <root>
        <mxCell id="0" />
        <mxCell id="1" parent="0" />
        <mxCell id="hzldOnX106d3bWHdFhdb-1" value="&lt;h1 style=&quot;margin-top: 0px;&quot;&gt;Generative AI&lt;/h1&gt;&lt;div&gt;Below are some of the definition found from internet so far.&lt;/div&gt;&lt;p&gt;&lt;/p&gt;&lt;ol&gt;&lt;li&gt;Generate new data based on training samples. Generative model can generate image, video, audio, test data as output.&lt;/li&gt;&lt;/ol&gt;&lt;p&gt;&lt;/p&gt;" style="text;html=1;whiteSpace=wrap;overflow=hidden;rounded=0;" vertex="1" parent="1">
          <mxGeometry x="50" y="40" width="710" height="160" as="geometry" />
        </mxCell>
      </root>
    </mxGraphModel>
  </diagram>
</mxfile>
